<svg width="40" height="40" viewBox="0 0 40 40" fill="none" xmlns="http://www.w3.org/2000/svg">
<g clip-path="url(#clip0_7_2)">
<path d="M34 0H6C2.68629 0 0 2.68629 0 6V34C0 37.3137 2.68629 40 6 40H34C37.3137 40 40 37.3137 40 34V6C40 2.68629 37.3137 0 34 0Z" fill="black"/>
<path d="M17.2288 13.208C17.8901 13.3573 18.4128 13.688 18.7968 14.2C19.1915 14.7013 19.3888 15.2773 19.3888 15.928C19.3888 16.888 19.0581 17.64 18.3968 18.184C17.7355 18.728 16.8075 19 15.6128 19H10.0288V7.72H15.4368C16.5888 7.72 17.4901 7.976 18.1408 8.488C18.8021 9 19.1328 9.72 19.1328 10.648C19.1328 11.3093 18.9568 11.864 18.6048 12.312C18.2635 12.7493 17.8048 13.048 17.2288 13.208ZM13.1648 12.2H14.7488C15.5381 12.2 15.9328 11.8747 15.9328 11.224C15.9328 10.552 15.5381 10.216 14.7488 10.216H13.1648V12.2ZM14.9888 16.472C15.7781 16.472 16.1728 16.1413 16.1728 15.48C16.1728 15.1387 16.0661 14.8773 15.8528 14.696C15.6501 14.5147 15.3568 14.424 14.9728 14.424H13.1648V16.472H14.9888Z" fill="white"/>
<path d="M20.5 17C22.433 17 24 15.433 24 13.5C24 11.567 22.433 10 20.5 10C18.567 10 17 11.567 17 13.5C17 15.433 18.567 17 20.5 17Z" fill="black"/>
<path d="M29.8178 8.024L24.1218 21.272H20.7138L22.8578 16.616L19.1778 8.024H22.6658L24.5538 13.112L26.3778 8.024H29.8178Z" fill="white"/>
<path d="M13.9704 33L11.4904 29.32V33H8.35444V21.16H11.4904V27.544L13.9704 24.024H17.7304L14.1944 28.536L17.7944 33H13.9704ZM16.1218 28.504C16.1218 27.576 16.2871 26.7653 16.6178 26.072C16.9591 25.3787 17.4178 24.8453 17.9938 24.472C18.5805 24.0987 19.2311 23.912 19.9458 23.912C20.5645 23.912 21.0978 24.0347 21.5458 24.28C21.9938 24.5253 22.3405 24.856 22.5858 25.272V24.024H25.7218V33H22.5858V31.752C22.3405 32.168 21.9885 32.4987 21.5298 32.744C21.0818 32.9893 20.5538 33.112 19.9458 33.112C19.2311 33.112 18.5805 32.9253 17.9938 32.552C17.4178 32.1787 16.9591 31.6453 16.6178 30.952C16.2871 30.248 16.1218 29.432 16.1218 28.504ZM22.5858 28.504C22.5858 27.928 22.4258 27.4747 22.1058 27.144C21.7965 26.8133 21.4125 26.648 20.9538 26.648C20.4845 26.648 20.0951 26.8133 19.7858 27.144C19.4765 27.464 19.3218 27.9173 19.3218 28.504C19.3218 29.08 19.4765 29.5387 19.7858 29.88C20.0951 30.2107 20.4845 30.376 20.9538 30.376C21.4125 30.376 21.7965 30.2107 22.1058 29.88C22.4258 29.5493 22.5858 29.0907 22.5858 28.504ZM28.3408 23.944C29.3755 23.944 30.1968 24.2907 30.8048 24.984C31.4128 25.6667 31.7168 26.5947 31.7168 27.768V33H28.5808V28.184C28.5808 27.672 28.4475 27.272 28.1808 26.984C27.9141 26.6853 27.5568 26.536 27.1088 26.536C26.6395 26.536 26.2715 26.6853 26.0048 26.984C25.7381 27.272 25.6048 27.672 25.6048 28.184V33H22.4688V24.024H25.6048V25.304C25.8821 24.8987 26.2555 24.5733 26.7248 24.328C27.1941 24.072 27.7328 23.944 28.3408 23.944Z" fill="white"/>
</g>
<defs>
<clipPath id="clip0_7_2">
<rect width="40" height="40" fill="white"/>
</clipPath>
</defs>
</svg>
